<svg width="38" height="16" viewBox="0 0 38 16" fill="none" xmlns="http://www.w3.org/2000/svg">
<path fill-rule="evenodd" clip-rule="evenodd" d="M18.7992 0C23.0745 0 26.5411 3.46442 26.5411 7.74063C26.5411 12.0164 23.0745 15.4817 18.7992 15.4817C14.5225 15.4817 11.0581 12.0164 11.0581 7.74063C11.0581 3.46442 14.5225 0 18.7992 0ZM18.7992 11.0585C20.6316 11.0585 22.1175 9.5739 22.1175 7.74063C22.1175 5.90821 20.6316 4.42358 18.7992 4.42358C16.9659 4.42358 15.4825 5.90821 15.4825 7.74063C15.4825 9.5739 16.9659 11.0585 18.7992 11.0585ZM33.0581 8.08884C32.2552 9.13305 31.2859 10.1617 30.3171 11.136C28.6341 12.8366 26.7259 14.3225 24.8046 15.4817H30.4328C33.3465 13.3806 35.9204 10.5604 37.5992 7.74063C35.9204 4.92168 33.3465 2.10147 30.4328 0H24.8046C26.7259 1.15916 28.6341 2.64547 30.3171 4.34611C31.2859 5.32042 32.2552 6.34863 33.0581 7.39326V7.39621C33.1339 7.49095 33.1806 7.60884 33.1806 7.73937C33.1806 7.86947 33.1339 7.98779 33.0581 8.08211V8.08884ZM4.54063 8.08884C5.34316 9.13305 6.31326 10.1617 7.28211 11.136C8.96421 12.8366 10.8733 14.3225 12.7945 15.4817H7.16632C4.25221 13.3806 1.67789 10.5604 0 7.74063C1.67789 4.92168 4.25221 2.10147 7.16632 0H12.7945C10.8733 1.15916 8.96421 2.64547 7.28211 4.34611C6.31326 5.32042 5.34316 6.34863 4.54063 7.39326V7.39621C4.46484 7.49095 4.41853 7.60884 4.41853 7.73937C4.41853 7.86947 4.46484 7.98779 4.54063 8.08211V8.08884Z" fill="#28BBBB"/>
</svg>
